<svg width="369" height="85" viewBox="0 0 369 85" fill="none" xmlns="http://www.w3.org/2000/svg">
<path d="M0.234375 67.672H2.88281C5.14844 63.1407 6.9375 58.6173 8.25 54.1017C9.5625 49.5704 10.5391 44.6876 11.1797 39.4532H31.1484V67.672H35.7188V83.7032H28.7109V73.7189H7.24219V83.7032H0.234375V67.672ZM16.9453 45.5001C16.4453 49.0782 15.6094 52.8673 14.4375 56.8673C13.2812 60.8673 11.9766 64.4689 10.5234 67.672H23.9062V45.5001H16.9453ZM51.3047 52.1095C49.7891 52.1095 48.6016 52.5939 47.7422 53.5626C46.8828 54.5157 46.3906 55.8751 46.2656 57.6407H56.2969C56.2656 55.8751 55.8047 54.5157 54.9141 53.5626C54.0234 52.5939 52.8203 52.1095 51.3047 52.1095ZM52.3125 74.1876C48.0938 74.1876 44.7969 73.0235 42.4219 70.6954C40.0469 68.3673 38.8594 65.0704 38.8594 60.8048C38.8594 56.4142 39.9531 53.0235 42.1406 50.6329C44.3438 48.2267 47.3828 47.0235 51.2578 47.0235C54.9609 47.0235 57.8438 48.0782 59.9062 50.1876C61.9688 52.297 63 55.211 63 58.9298V62.3985H46.1016C46.1797 64.4298 46.7812 66.0157 47.9062 67.1564C49.0312 68.297 50.6094 68.8673 52.6406 68.8673C54.2188 68.8673 55.7109 68.7032 57.1172 68.3751C58.5234 68.047 59.9922 67.5235 61.5234 66.8048V72.336C60.2734 72.961 58.9375 73.422 57.5156 73.7189C56.0938 74.0314 54.3594 74.1876 52.3125 74.1876ZM92.2734 73.7189H85.125V52.8829H78.5391C78.0391 58.7423 77.4297 63.1173 76.7109 66.0079C75.9922 68.8829 75.0312 70.9689 73.8281 72.2657C72.6406 73.547 71.0781 74.1876 69.1406 74.1876C67.4844 74.1876 66.125 73.9376 65.0625 73.4376V67.7189C65.8281 68.0314 66.5938 68.1876 67.3594 68.1876C68.25 68.1876 68.9922 67.547 69.5859 66.2657C70.1953 64.9845 70.7344 62.8517 71.2031 59.8673C71.6875 56.8673 72.1016 52.7501 72.4453 47.5157H92.2734V73.7189ZM116.438 73.7189L115.055 70.1564H114.867C113.664 71.672 112.422 72.7267 111.141 73.3204C109.875 73.8985 108.219 74.1876 106.172 74.1876C103.656 74.1876 101.672 73.4689 100.219 72.0314C98.7812 70.5939 98.0625 68.547 98.0625 65.8907C98.0625 63.1095 99.0312 61.0626 100.969 59.7501C102.922 58.422 105.859 57.6876 109.781 57.547L114.328 57.4064V56.2579C114.328 53.6017 112.969 52.2735 110.25 52.2735C108.156 52.2735 105.695 52.9064 102.867 54.172L100.5 49.3439C103.516 47.7657 106.859 46.9767 110.531 46.9767C114.047 46.9767 116.742 47.7423 118.617 49.2735C120.492 50.8048 121.43 53.1329 121.43 56.2579V73.7189H116.438ZM114.328 61.5782L111.562 61.672C109.484 61.7345 107.938 62.1095 106.922 62.797C105.906 63.4845 105.398 64.5314 105.398 65.9376C105.398 67.9532 106.555 68.961 108.867 68.961C110.523 68.961 111.844 68.4845 112.828 67.5314C113.828 66.5782 114.328 65.3126 114.328 63.7345V61.5782ZM135.727 47.5157V57.8751C135.727 58.9689 135.547 61.6407 135.188 65.8907L147.281 47.5157H155.883V73.7189H148.969V63.2657C148.969 61.4064 149.125 58.7814 149.438 55.3907L137.391 73.7189H128.812V47.5157H135.727ZM153.773 36.2423C153.477 39.1642 152.375 41.297 150.469 42.6407C148.562 43.9689 145.812 44.6329 142.219 44.6329C138.516 44.6329 135.773 43.9923 133.992 42.711C132.227 41.4298 131.234 39.2735 131.016 36.2423H137.414C137.523 37.8517 137.922 38.9845 138.609 39.6407C139.312 40.2814 140.562 40.6017 142.359 40.6017C143.938 40.6017 145.109 40.2501 145.875 39.547C146.656 38.8282 147.133 37.7267 147.305 36.2423H153.773Z" fill="#FFFDFD"/>
<path d="M193.793 39.0525L190.518 37.3625C187.292 35.6724 183.311 35.9622 180.387 38.0868C177.918 39.8251 174.642 40.0666 171.971 38.6662L169.048 37.1211V35.9621C169.854 35.2861 170.358 34.2721 170.358 33.2581C170.358 31.3266 168.695 29.7331 166.679 29.7331C164.663 29.7331 163 31.3266 163 33.2581C163 34.3687 163.454 35.3344 164.361 35.9621V75.8957C164.361 76.0889 164.411 76.282 164.562 76.4269C164.714 76.5718 164.915 76.62 165.117 76.62H168.241C168.695 76.62 169.048 76.3303 169.048 75.8957V55.2288L171.215 56.3877C174.44 58.0777 178.372 57.788 181.345 55.6634C183.815 53.925 187.09 53.6836 189.812 55.0839L193.088 56.774C193.34 56.9188 193.642 56.8705 193.844 56.774C194.096 56.6291 194.247 56.3877 194.247 56.1462V39.7286C194.197 39.4388 194.045 39.1974 193.793 39.0525ZM166.679 31.23C167.838 31.23 168.796 32.1475 168.796 33.2581C168.796 34.3687 167.838 35.2861 166.679 35.2861C165.52 35.2861 164.562 34.3687 164.562 33.2581C164.562 32.1475 165.52 31.23 166.679 31.23ZM165.974 75.1231V36.6865C166.225 36.7347 166.477 36.783 166.729 36.783C166.981 36.783 167.233 36.7347 167.485 36.6865V75.1231H165.974ZM192.634 54.8425L190.518 53.7319C187.292 52.0418 183.311 52.3315 180.387 54.4562C177.918 56.1945 174.642 56.436 171.971 55.0356L169.048 53.4904V38.8111L171.215 39.97C174.44 41.6601 178.372 41.3703 181.345 39.2457C183.815 37.5074 187.09 37.2659 189.812 38.6662L192.685 40.1631L192.634 54.8425Z" fill="white"/>
<path d="M185.247 46.5948C184.794 44.4219 183.03 42.7318 180.712 42.2973C178.444 41.911 176.125 42.8767 174.865 44.7116C171.892 44.7116 170.279 45.2911 170.078 46.45C169.926 47.3674 170.783 48.2366 172.698 49.0092C173.202 49.2023 173.757 49.3955 174.361 49.5886C175.117 51.4718 176.881 52.7756 178.948 53.017C181.014 53.2585 183.08 52.4376 184.29 50.7958C184.391 50.7958 184.491 50.7958 184.542 50.7958C186.608 50.6027 187.667 50.0715 187.818 49.1541C188.019 48.1883 187.163 47.3674 185.247 46.5948ZM179.704 43.6976C181.115 43.6976 182.425 44.3736 183.181 45.5325C183.937 46.6914 184.038 48.14 183.383 49.3472C181.82 49.3472 180.308 49.2506 178.796 49.0092C177.738 48.8643 176.68 48.6229 175.672 48.3815C175.42 47.2226 175.773 46.0154 176.529 45.1462C177.285 44.2288 178.444 43.6976 179.704 43.6976ZM173.706 47.802C172.446 47.3191 171.892 46.9328 171.741 46.7397C171.993 46.5948 172.698 46.3534 174.21 46.3051C174.059 46.7397 174.009 47.2226 174.009 47.7054C174.009 47.802 174.009 47.8986 174.009 47.9469C173.908 47.8503 173.807 47.802 173.706 47.802ZM176.478 50.1198C177.133 50.2647 177.839 50.4095 178.544 50.5061C179.704 50.6992 180.913 50.7958 182.072 50.8441C180.308 52.0513 177.889 51.7616 176.478 50.1198ZM185.096 49.2023C185.197 48.9126 185.247 48.5746 185.298 48.2366C185.852 48.5263 186.104 48.7195 186.205 48.8643C186.104 48.9609 185.751 49.1058 185.096 49.2023Z" fill="white"/>
</svg>
